<mxfile host="app.diagrams.net" modified="2022-06-26T07:34:49.616Z" agent="5.0 (Windows NT 10.0; Win64; x64) AppleWebKit/537.36 (KHTML, like Gecko) Chrome/102.0.0.0 Safari/537.36" etag="UTV6IGFANpm1c0suB4j5" version="20.0.3" type="github">
  <diagram id="-JeUMONWJu-J6zXToi6y" name="Page-1">
    <mxGraphModel dx="1420" dy="752" grid="1" gridSize="10" guides="1" tooltips="1" connect="1" arrows="1" fold="1" page="1" pageScale="1" pageWidth="1169" pageHeight="827" math="0" shadow="0">
      <root>
        <mxCell id="0" />
        <mxCell id="1" parent="0" />
        <mxCell id="PUIkpn1EFsI0aQIMFj-C-135" value="" style="group;fillColor=#FFE599;strokeColor=#001DBC;fontColor=#ffffff;gradientColor=none;" parent="1" vertex="1" connectable="0">
          <mxGeometry x="155" y="210" width="270" height="160" as="geometry" />
        </mxCell>
        <mxCell id="PUIkpn1EFsI0aQIMFj-C-131" value="" style="rounded=0;whiteSpace=wrap;html=1;fillColor=#FFE599;" parent="PUIkpn1EFsI0aQIMFj-C-135" vertex="1">
          <mxGeometry width="270" height="160" as="geometry" />
        </mxCell>
        <mxCell id="PUIkpn1EFsI0aQIMFj-C-132" value="Bread Bord&lt;br&gt;" style="text;html=1;align=center;verticalAlign=middle;resizable=0;points=[];autosize=1;strokeColor=none;fillColor=none;" parent="PUIkpn1EFsI0aQIMFj-C-135" vertex="1">
          <mxGeometry x="125" width="80" height="30" as="geometry" />
        </mxCell>
        <mxCell id="PUIkpn1EFsI0aQIMFj-C-155" value="5v" style="rhombus;whiteSpace=wrap;html=1;" parent="PUIkpn1EFsI0aQIMFj-C-135" vertex="1">
          <mxGeometry x="10" y="30" width="42.5" height="40" as="geometry" />
        </mxCell>
        <mxCell id="PUIkpn1EFsI0aQIMFj-C-160" value="-" style="rhombus;whiteSpace=wrap;html=1;" parent="PUIkpn1EFsI0aQIMFj-C-135" vertex="1">
          <mxGeometry x="10" y="90" width="42.5" height="40" as="geometry" />
        </mxCell>
        <mxCell id="0tfDMwp1xF6EGkPO3yS6-41" value="12v" style="rhombus;whiteSpace=wrap;html=1;" vertex="1" parent="PUIkpn1EFsI0aQIMFj-C-135">
          <mxGeometry x="220" y="30" width="42.5" height="40" as="geometry" />
        </mxCell>
        <mxCell id="0tfDMwp1xF6EGkPO3yS6-42" value="-" style="rhombus;whiteSpace=wrap;html=1;" vertex="1" parent="PUIkpn1EFsI0aQIMFj-C-135">
          <mxGeometry x="220" y="90" width="42.5" height="40" as="geometry" />
        </mxCell>
        <mxCell id="PUIkpn1EFsI0aQIMFj-C-105" value="" style="rounded=0;whiteSpace=wrap;html=1;fillColor=#D4E1F5;" parent="1" vertex="1">
          <mxGeometry x="50" y="480" width="150" height="341" as="geometry" />
        </mxCell>
        <mxCell id="PUIkpn1EFsI0aQIMFj-C-1" value="" style="shape=cylinder3;whiteSpace=wrap;html=1;boundedLbl=1;backgroundOutline=1;size=15;fillColor=#7EA6E0;" parent="1" vertex="1">
          <mxGeometry x="960" y="606" width="190" height="200" as="geometry" />
        </mxCell>
        <mxCell id="0tfDMwp1xF6EGkPO3yS6-93" style="edgeStyle=orthogonalEdgeStyle;rounded=0;orthogonalLoop=1;jettySize=auto;html=1;exitX=0;exitY=0.25;exitDx=0;exitDy=0;entryX=0.5;entryY=1;entryDx=0;entryDy=0;" edge="1" parent="1" source="PUIkpn1EFsI0aQIMFj-C-2" target="0tfDMwp1xF6EGkPO3yS6-42">
          <mxGeometry relative="1" as="geometry" />
        </mxCell>
        <mxCell id="PUIkpn1EFsI0aQIMFj-C-2" value="water pump 5v" style="shape=hexagon;perimeter=hexagonPerimeter2;whiteSpace=wrap;html=1;fixedSize=1;fillColor=#0050ef;fontColor=#ffffff;strokeColor=#001DBC;" parent="1" vertex="1">
          <mxGeometry x="1005" y="736" width="100" height="60" as="geometry" />
        </mxCell>
        <mxCell id="0tfDMwp1xF6EGkPO3yS6-79" style="edgeStyle=orthogonalEdgeStyle;rounded=0;orthogonalLoop=1;jettySize=auto;html=1;entryX=0.5;entryY=1;entryDx=0;entryDy=0;exitX=0.5;exitY=0;exitDx=0;exitDy=0;" edge="1" parent="1" source="PUIkpn1EFsI0aQIMFj-C-10" target="0tfDMwp1xF6EGkPO3yS6-42">
          <mxGeometry relative="1" as="geometry">
            <Array as="points">
              <mxPoint x="730" y="350" />
              <mxPoint x="396" y="350" />
            </Array>
          </mxGeometry>
        </mxCell>
        <mxCell id="PUIkpn1EFsI0aQIMFj-C-10" value="solenoid &lt;br&gt;valve 12v" style="ellipse;whiteSpace=wrap;html=1;fillColor=#66FFFF;" parent="1" vertex="1">
          <mxGeometry x="700" y="414" width="60" height="37" as="geometry" />
        </mxCell>
        <mxCell id="PUIkpn1EFsI0aQIMFj-C-114" style="edgeStyle=orthogonalEdgeStyle;rounded=0;orthogonalLoop=1;jettySize=auto;html=1;entryX=0.5;entryY=1;entryDx=0;entryDy=0;" parent="1" source="PUIkpn1EFsI0aQIMFj-C-21" target="PUIkpn1EFsI0aQIMFj-C-55" edge="1">
          <mxGeometry relative="1" as="geometry" />
        </mxCell>
        <mxCell id="PUIkpn1EFsI0aQIMFj-C-21" value="relay 1" style="rhombus;whiteSpace=wrap;html=1;" parent="1" vertex="1">
          <mxGeometry x="100" y="571" width="50" height="40" as="geometry" />
        </mxCell>
        <mxCell id="PUIkpn1EFsI0aQIMFj-C-115" style="edgeStyle=orthogonalEdgeStyle;rounded=0;orthogonalLoop=1;jettySize=auto;html=1;entryX=0.5;entryY=1;entryDx=0;entryDy=0;" parent="1" source="PUIkpn1EFsI0aQIMFj-C-22" target="PUIkpn1EFsI0aQIMFj-C-55" edge="1">
          <mxGeometry relative="1" as="geometry" />
        </mxCell>
        <mxCell id="0tfDMwp1xF6EGkPO3yS6-90" style="edgeStyle=orthogonalEdgeStyle;rounded=0;orthogonalLoop=1;jettySize=auto;html=1;exitX=1;exitY=1;exitDx=0;exitDy=0;entryX=0.5;entryY=1;entryDx=0;entryDy=0;" edge="1" parent="1" source="PUIkpn1EFsI0aQIMFj-C-22" target="PUIkpn1EFsI0aQIMFj-C-166">
          <mxGeometry relative="1" as="geometry">
            <Array as="points">
              <mxPoint x="360" y="651" />
              <mxPoint x="360" y="710" />
              <mxPoint x="790" y="710" />
              <mxPoint x="790" y="690" />
              <mxPoint x="730" y="690" />
            </Array>
          </mxGeometry>
        </mxCell>
        <mxCell id="PUIkpn1EFsI0aQIMFj-C-22" value="relay 2" style="rhombus;whiteSpace=wrap;html=1;" parent="1" vertex="1">
          <mxGeometry x="100" y="621" width="50" height="40" as="geometry" />
        </mxCell>
        <mxCell id="PUIkpn1EFsI0aQIMFj-C-116" style="edgeStyle=orthogonalEdgeStyle;rounded=0;orthogonalLoop=1;jettySize=auto;html=1;" parent="1" source="PUIkpn1EFsI0aQIMFj-C-23" target="PUIkpn1EFsI0aQIMFj-C-55" edge="1">
          <mxGeometry relative="1" as="geometry" />
        </mxCell>
        <mxCell id="0tfDMwp1xF6EGkPO3yS6-91" style="edgeStyle=orthogonalEdgeStyle;rounded=0;orthogonalLoop=1;jettySize=auto;html=1;exitX=1;exitY=1;exitDx=0;exitDy=0;entryX=0.5;entryY=1;entryDx=0;entryDy=0;" edge="1" parent="1" source="PUIkpn1EFsI0aQIMFj-C-23" target="PUIkpn1EFsI0aQIMFj-C-165">
          <mxGeometry relative="1" as="geometry">
            <Array as="points">
              <mxPoint x="360" y="701" />
              <mxPoint x="360" y="710" />
              <mxPoint x="790" y="710" />
              <mxPoint x="790" y="570" />
              <mxPoint x="730" y="570" />
            </Array>
          </mxGeometry>
        </mxCell>
        <mxCell id="PUIkpn1EFsI0aQIMFj-C-23" value="relay 3" style="rhombus;whiteSpace=wrap;html=1;" parent="1" vertex="1">
          <mxGeometry x="100" y="671" width="50" height="40" as="geometry" />
        </mxCell>
        <mxCell id="PUIkpn1EFsI0aQIMFj-C-117" style="edgeStyle=orthogonalEdgeStyle;rounded=0;orthogonalLoop=1;jettySize=auto;html=1;" parent="1" source="PUIkpn1EFsI0aQIMFj-C-24" target="PUIkpn1EFsI0aQIMFj-C-55" edge="1">
          <mxGeometry relative="1" as="geometry" />
        </mxCell>
        <mxCell id="0tfDMwp1xF6EGkPO3yS6-92" style="edgeStyle=orthogonalEdgeStyle;rounded=0;orthogonalLoop=1;jettySize=auto;html=1;exitX=1;exitY=1;exitDx=0;exitDy=0;entryX=0.5;entryY=1;entryDx=0;entryDy=0;" edge="1" parent="1" source="PUIkpn1EFsI0aQIMFj-C-21" target="PUIkpn1EFsI0aQIMFj-C-10">
          <mxGeometry relative="1" as="geometry">
            <Array as="points">
              <mxPoint x="360" y="601" />
              <mxPoint x="360" y="710" />
              <mxPoint x="790" y="710" />
              <mxPoint x="790" y="460" />
              <mxPoint x="730" y="460" />
            </Array>
          </mxGeometry>
        </mxCell>
        <mxCell id="0tfDMwp1xF6EGkPO3yS6-94" style="edgeStyle=orthogonalEdgeStyle;rounded=0;orthogonalLoop=1;jettySize=auto;html=1;exitX=1;exitY=1;exitDx=0;exitDy=0;entryX=0;entryY=0.75;entryDx=0;entryDy=0;" edge="1" parent="1" source="PUIkpn1EFsI0aQIMFj-C-24" target="PUIkpn1EFsI0aQIMFj-C-2">
          <mxGeometry relative="1" as="geometry">
            <Array as="points">
              <mxPoint x="360" y="756" />
              <mxPoint x="360" y="779" />
            </Array>
          </mxGeometry>
        </mxCell>
        <mxCell id="PUIkpn1EFsI0aQIMFj-C-24" value="relay 4" style="rhombus;whiteSpace=wrap;html=1;" parent="1" vertex="1">
          <mxGeometry x="100" y="726" width="50" height="40" as="geometry" />
        </mxCell>
        <mxCell id="PUIkpn1EFsI0aQIMFj-C-32" value="ghiveci" style="shape=cylinder3;whiteSpace=wrap;html=1;boundedLbl=1;backgroundOutline=1;size=15;fillColor=#CC6600;" parent="1" vertex="1">
          <mxGeometry x="590" y="384" width="60" height="80" as="geometry" />
        </mxCell>
        <mxCell id="0tfDMwp1xF6EGkPO3yS6-96" style="edgeStyle=orthogonalEdgeStyle;rounded=0;orthogonalLoop=1;jettySize=auto;html=1;entryX=0.5;entryY=1;entryDx=0;entryDy=0;" edge="1" parent="1" source="PUIkpn1EFsI0aQIMFj-C-33" target="PUIkpn1EFsI0aQIMFj-C-55">
          <mxGeometry relative="1" as="geometry" />
        </mxCell>
        <mxCell id="PUIkpn1EFsI0aQIMFj-C-33" value="sensor&lt;br&gt;5v" style="triangle;whiteSpace=wrap;html=1;rotation=90;horizontal=0;fillColor=#67AB9F;" parent="1" vertex="1">
          <mxGeometry x="602.5" y="340" width="35" height="91.25" as="geometry" />
        </mxCell>
        <mxCell id="PUIkpn1EFsI0aQIMFj-C-42" value="ghiveci" style="shape=cylinder3;whiteSpace=wrap;html=1;boundedLbl=1;backgroundOutline=1;size=15;fillColor=#CC6600;" parent="1" vertex="1">
          <mxGeometry x="590" y="491" width="60" height="80" as="geometry" />
        </mxCell>
        <mxCell id="PUIkpn1EFsI0aQIMFj-C-43" value="sensor&lt;br&gt;5v" style="triangle;whiteSpace=wrap;html=1;rotation=90;horizontal=0;fillColor=#67AB9F;" parent="1" vertex="1">
          <mxGeometry x="602.5" y="447" width="35" height="91.25" as="geometry" />
        </mxCell>
        <mxCell id="PUIkpn1EFsI0aQIMFj-C-44" value="ghiveci" style="shape=cylinder3;whiteSpace=wrap;html=1;boundedLbl=1;backgroundOutline=1;size=15;fillColor=#CC6600;fontColor=#ffffff;strokeColor=#6F0000;" parent="1" vertex="1">
          <mxGeometry x="590" y="610.5" width="60" height="80" as="geometry" />
        </mxCell>
        <mxCell id="PUIkpn1EFsI0aQIMFj-C-45" value="sensor&lt;br&gt;5v" style="triangle;whiteSpace=wrap;html=1;rotation=90;horizontal=0;fillColor=#67AB9F;" parent="1" vertex="1">
          <mxGeometry x="602.5" y="561" width="35" height="91.25" as="geometry" />
        </mxCell>
        <mxCell id="PUIkpn1EFsI0aQIMFj-C-48" value="raspberry pi pico" style="shape=hexagon;perimeter=hexagonPerimeter2;whiteSpace=wrap;html=1;fixedSize=1;fillColor=#97D077;" parent="1" vertex="1">
          <mxGeometry x="20" y="13.25" width="120" height="80" as="geometry" />
        </mxCell>
        <mxCell id="PUIkpn1EFsI0aQIMFj-C-146" style="edgeStyle=orthogonalEdgeStyle;rounded=0;orthogonalLoop=1;jettySize=auto;html=1;entryX=1;entryY=0.5;entryDx=0;entryDy=0;" parent="1" source="PUIkpn1EFsI0aQIMFj-C-49" target="PUIkpn1EFsI0aQIMFj-C-67" edge="1">
          <mxGeometry relative="1" as="geometry" />
        </mxCell>
        <mxCell id="PUIkpn1EFsI0aQIMFj-C-147" style="edgeStyle=orthogonalEdgeStyle;rounded=0;orthogonalLoop=1;jettySize=auto;html=1;entryX=1;entryY=0.5;entryDx=0;entryDy=0;" parent="1" source="PUIkpn1EFsI0aQIMFj-C-49" target="PUIkpn1EFsI0aQIMFj-C-69" edge="1">
          <mxGeometry relative="1" as="geometry" />
        </mxCell>
        <mxCell id="PUIkpn1EFsI0aQIMFj-C-49" value="12v to 5v 5a converter" style="whiteSpace=wrap;html=1;aspect=fixed;fillColor=#F19C99;" parent="1" vertex="1">
          <mxGeometry x="380" y="13.25" width="80" height="80" as="geometry" />
        </mxCell>
        <mxCell id="0tfDMwp1xF6EGkPO3yS6-77" style="edgeStyle=orthogonalEdgeStyle;rounded=0;orthogonalLoop=1;jettySize=auto;html=1;entryX=0.5;entryY=1;entryDx=0;entryDy=0;exitX=1;exitY=0.5;exitDx=0;exitDy=0;" edge="1" parent="1" source="PUIkpn1EFsI0aQIMFj-C-50" target="PUIkpn1EFsI0aQIMFj-C-160">
          <mxGeometry relative="1" as="geometry">
            <Array as="points">
              <mxPoint x="70" y="541" />
              <mxPoint x="70" y="420" />
              <mxPoint x="186" y="420" />
            </Array>
          </mxGeometry>
        </mxCell>
        <mxCell id="PUIkpn1EFsI0aQIMFj-C-50" value="gnd" style="rhombus;whiteSpace=wrap;html=1;" parent="1" vertex="1">
          <mxGeometry x="100" y="521" width="50" height="40" as="geometry" />
        </mxCell>
        <mxCell id="0tfDMwp1xF6EGkPO3yS6-78" style="edgeStyle=orthogonalEdgeStyle;rounded=0;orthogonalLoop=1;jettySize=auto;html=1;" edge="1" parent="1" source="PUIkpn1EFsI0aQIMFj-C-51" target="PUIkpn1EFsI0aQIMFj-C-155">
          <mxGeometry relative="1" as="geometry">
            <Array as="points">
              <mxPoint x="20" y="796" />
              <mxPoint x="20" y="360" />
              <mxPoint x="110" y="360" />
              <mxPoint x="110" y="290" />
              <mxPoint x="186" y="290" />
            </Array>
          </mxGeometry>
        </mxCell>
        <mxCell id="PUIkpn1EFsI0aQIMFj-C-51" value="vcc" style="rhombus;whiteSpace=wrap;html=1;" parent="1" vertex="1">
          <mxGeometry x="100" y="776" width="50" height="40" as="geometry" />
        </mxCell>
        <mxCell id="0tfDMwp1xF6EGkPO3yS6-20" style="edgeStyle=orthogonalEdgeStyle;rounded=0;orthogonalLoop=1;jettySize=auto;html=1;entryX=0.5;entryY=1;entryDx=0;entryDy=0;" edge="1" parent="1" source="PUIkpn1EFsI0aQIMFj-C-55" target="PUIkpn1EFsI0aQIMFj-C-48">
          <mxGeometry relative="1" as="geometry">
            <Array as="points">
              <mxPoint x="35" y="120" />
              <mxPoint x="80" y="120" />
            </Array>
          </mxGeometry>
        </mxCell>
        <mxCell id="PUIkpn1EFsI0aQIMFj-C-55" value="gpio" style="rhombus;whiteSpace=wrap;html=1;" parent="1" vertex="1">
          <mxGeometry x="10" y="160" width="50" height="40" as="geometry" />
        </mxCell>
        <mxCell id="0tfDMwp1xF6EGkPO3yS6-67" style="edgeStyle=orthogonalEdgeStyle;rounded=0;orthogonalLoop=1;jettySize=auto;html=1;entryX=0.5;entryY=1;entryDx=0;entryDy=0;" edge="1" parent="1" source="PUIkpn1EFsI0aQIMFj-C-65" target="PUIkpn1EFsI0aQIMFj-C-48">
          <mxGeometry relative="1" as="geometry">
            <Array as="points">
              <mxPoint x="85" y="120" />
              <mxPoint x="80" y="120" />
            </Array>
          </mxGeometry>
        </mxCell>
        <mxCell id="PUIkpn1EFsI0aQIMFj-C-65" value="gnd" style="rhombus;whiteSpace=wrap;html=1;" parent="1" vertex="1">
          <mxGeometry x="60" y="160" width="50" height="40" as="geometry" />
        </mxCell>
        <mxCell id="0tfDMwp1xF6EGkPO3yS6-68" style="edgeStyle=orthogonalEdgeStyle;rounded=0;orthogonalLoop=1;jettySize=auto;html=1;entryX=0.5;entryY=1;entryDx=0;entryDy=0;" edge="1" parent="1" source="PUIkpn1EFsI0aQIMFj-C-66" target="PUIkpn1EFsI0aQIMFj-C-48">
          <mxGeometry relative="1" as="geometry">
            <mxPoint x="160" y="120" as="targetPoint" />
            <Array as="points">
              <mxPoint x="135" y="120" />
              <mxPoint x="80" y="120" />
            </Array>
          </mxGeometry>
        </mxCell>
        <mxCell id="PUIkpn1EFsI0aQIMFj-C-66" value="vsys" style="rhombus;whiteSpace=wrap;html=1;" parent="1" vertex="1">
          <mxGeometry x="110" y="160" width="50" height="40" as="geometry" />
        </mxCell>
        <mxCell id="0tfDMwp1xF6EGkPO3yS6-65" style="edgeStyle=orthogonalEdgeStyle;rounded=0;orthogonalLoop=1;jettySize=auto;html=1;entryX=1;entryY=0.5;entryDx=0;entryDy=0;" edge="1" parent="1" source="PUIkpn1EFsI0aQIMFj-C-67" target="PUIkpn1EFsI0aQIMFj-C-155">
          <mxGeometry relative="1" as="geometry" />
        </mxCell>
        <mxCell id="PUIkpn1EFsI0aQIMFj-C-67" value="+" style="rhombus;whiteSpace=wrap;html=1;" parent="1" vertex="1">
          <mxGeometry x="310" y="13.25" width="40" height="40" as="geometry" />
        </mxCell>
        <mxCell id="0tfDMwp1xF6EGkPO3yS6-66" style="edgeStyle=orthogonalEdgeStyle;rounded=0;orthogonalLoop=1;jettySize=auto;html=1;entryX=1;entryY=0.5;entryDx=0;entryDy=0;" edge="1" parent="1" source="PUIkpn1EFsI0aQIMFj-C-69" target="PUIkpn1EFsI0aQIMFj-C-160">
          <mxGeometry relative="1" as="geometry">
            <Array as="points">
              <mxPoint x="280" y="73" />
              <mxPoint x="280" y="320" />
            </Array>
          </mxGeometry>
        </mxCell>
        <mxCell id="PUIkpn1EFsI0aQIMFj-C-69" value="-" style="rhombus;whiteSpace=wrap;html=1;" parent="1" vertex="1">
          <mxGeometry x="310" y="53.25" width="40" height="40" as="geometry" />
        </mxCell>
        <mxCell id="PUIkpn1EFsI0aQIMFj-C-106" value="Relay board 5v" style="text;html=1;align=center;verticalAlign=middle;resizable=0;points=[];autosize=1;strokeColor=none;fillColor=none;" parent="1" vertex="1">
          <mxGeometry x="75" y="480" width="100" height="30" as="geometry" />
        </mxCell>
        <mxCell id="0tfDMwp1xF6EGkPO3yS6-80" style="edgeStyle=orthogonalEdgeStyle;rounded=0;orthogonalLoop=1;jettySize=auto;html=1;entryX=0.5;entryY=1;entryDx=0;entryDy=0;" edge="1" parent="1" source="PUIkpn1EFsI0aQIMFj-C-165" target="0tfDMwp1xF6EGkPO3yS6-42">
          <mxGeometry relative="1" as="geometry">
            <Array as="points">
              <mxPoint x="730" y="470" />
              <mxPoint x="396" y="470" />
            </Array>
          </mxGeometry>
        </mxCell>
        <mxCell id="PUIkpn1EFsI0aQIMFj-C-165" value="solenoid&lt;br&gt;valve 12v" style="ellipse;whiteSpace=wrap;html=1;fillColor=#66FFFF;" parent="1" vertex="1">
          <mxGeometry x="700" y="521" width="60" height="37" as="geometry" />
        </mxCell>
        <mxCell id="0tfDMwp1xF6EGkPO3yS6-81" style="edgeStyle=orthogonalEdgeStyle;rounded=0;orthogonalLoop=1;jettySize=auto;html=1;entryX=0.5;entryY=1;entryDx=0;entryDy=0;" edge="1" parent="1" source="PUIkpn1EFsI0aQIMFj-C-166" target="0tfDMwp1xF6EGkPO3yS6-42">
          <mxGeometry relative="1" as="geometry">
            <mxPoint x="450" y="420" as="targetPoint" />
            <Array as="points">
              <mxPoint x="730" y="580" />
              <mxPoint x="396" y="580" />
            </Array>
          </mxGeometry>
        </mxCell>
        <mxCell id="PUIkpn1EFsI0aQIMFj-C-166" value="solenoid&lt;br&gt;valve 12v" style="ellipse;whiteSpace=wrap;html=1;fillColor=#66FFFF;" parent="1" vertex="1">
          <mxGeometry x="700" y="643" width="60" height="37" as="geometry" />
        </mxCell>
        <mxCell id="PUIkpn1EFsI0aQIMFj-C-168" value="" style="shape=link;html=1;rounded=0;exitX=1;exitY=0.5;exitDx=0;exitDy=0;exitPerimeter=0;entryX=0;entryY=0.5;entryDx=0;entryDy=0;" parent="1" source="PUIkpn1EFsI0aQIMFj-C-42" target="PUIkpn1EFsI0aQIMFj-C-165" edge="1">
          <mxGeometry width="100" relative="1" as="geometry">
            <mxPoint x="940" y="309.5" as="sourcePoint" />
            <mxPoint x="1040" y="309.5" as="targetPoint" />
          </mxGeometry>
        </mxCell>
        <mxCell id="PUIkpn1EFsI0aQIMFj-C-169" value="" style="shape=link;html=1;rounded=0;exitX=1;exitY=0.5;exitDx=0;exitDy=0;exitPerimeter=0;entryX=0;entryY=0.5;entryDx=0;entryDy=0;" parent="1" source="PUIkpn1EFsI0aQIMFj-C-44" target="PUIkpn1EFsI0aQIMFj-C-166" edge="1">
          <mxGeometry width="100" relative="1" as="geometry">
            <mxPoint x="950" y="319.5" as="sourcePoint" />
            <mxPoint x="1050" y="319.5" as="targetPoint" />
          </mxGeometry>
        </mxCell>
        <mxCell id="PUIkpn1EFsI0aQIMFj-C-172" value="" style="shape=link;html=1;rounded=0;exitX=1;exitY=0.5;exitDx=0;exitDy=0;exitPerimeter=0;entryX=0;entryY=0.5;entryDx=0;entryDy=0;" parent="1" source="PUIkpn1EFsI0aQIMFj-C-32" target="PUIkpn1EFsI0aQIMFj-C-10" edge="1">
          <mxGeometry width="100" relative="1" as="geometry">
            <mxPoint x="870" y="423.5" as="sourcePoint" />
            <mxPoint x="970" y="423.5" as="targetPoint" />
          </mxGeometry>
        </mxCell>
        <mxCell id="PUIkpn1EFsI0aQIMFj-C-171" value="" style="shape=link;html=1;rounded=0;entryX=0;entryY=0.5;entryDx=0;entryDy=0;" parent="1" target="PUIkpn1EFsI0aQIMFj-C-2" edge="1">
          <mxGeometry width="100" relative="1" as="geometry">
            <mxPoint x="880" y="570" as="sourcePoint" />
            <mxPoint x="910" y="740" as="targetPoint" />
            <Array as="points">
              <mxPoint x="970" y="570" />
              <mxPoint x="970" y="766" />
            </Array>
          </mxGeometry>
        </mxCell>
        <mxCell id="PUIkpn1EFsI0aQIMFj-C-173" value="" style="shape=link;html=1;rounded=0;" parent="1" edge="1">
          <mxGeometry width="100" relative="1" as="geometry">
            <mxPoint x="880" y="431.25" as="sourcePoint" />
            <mxPoint x="880" y="660" as="targetPoint" />
            <Array as="points" />
          </mxGeometry>
        </mxCell>
        <mxCell id="PUIkpn1EFsI0aQIMFj-C-174" value="" style="shape=link;html=1;rounded=0;exitX=1;exitY=0.5;exitDx=0;exitDy=0;" parent="1" source="PUIkpn1EFsI0aQIMFj-C-10" edge="1">
          <mxGeometry width="100" relative="1" as="geometry">
            <mxPoint x="810" y="400" as="sourcePoint" />
            <mxPoint x="880" y="433" as="targetPoint" />
          </mxGeometry>
        </mxCell>
        <mxCell id="PUIkpn1EFsI0aQIMFj-C-175" value="" style="shape=link;html=1;rounded=0;exitX=1;exitY=0.5;exitDx=0;exitDy=0;" parent="1" source="PUIkpn1EFsI0aQIMFj-C-166" edge="1">
          <mxGeometry width="100" relative="1" as="geometry">
            <mxPoint x="930" y="480" as="sourcePoint" />
            <mxPoint x="880" y="662" as="targetPoint" />
          </mxGeometry>
        </mxCell>
        <mxCell id="PUIkpn1EFsI0aQIMFj-C-176" value="" style="shape=link;html=1;rounded=0;exitX=1;exitY=0.5;exitDx=0;exitDy=0;" parent="1" source="PUIkpn1EFsI0aQIMFj-C-165" edge="1">
          <mxGeometry width="100" relative="1" as="geometry">
            <mxPoint x="940" y="440" as="sourcePoint" />
            <mxPoint x="880" y="540" as="targetPoint" />
          </mxGeometry>
        </mxCell>
        <mxCell id="PUIkpn1EFsI0aQIMFj-C-177" value="bucket&lt;br&gt;" style="text;html=1;align=center;verticalAlign=middle;resizable=0;points=[];autosize=1;strokeColor=none;fillColor=none;" parent="1" vertex="1">
          <mxGeometry x="1025" y="641" width="60" height="30" as="geometry" />
        </mxCell>
        <mxCell id="0tfDMwp1xF6EGkPO3yS6-1" value="12v 2a 25w power supply" style="whiteSpace=wrap;html=1;aspect=fixed;fillColor=#EA6B66;" vertex="1" parent="1">
          <mxGeometry x="900" y="71.62" width="80" height="80" as="geometry" />
        </mxCell>
        <mxCell id="0tfDMwp1xF6EGkPO3yS6-10" style="edgeStyle=orthogonalEdgeStyle;rounded=0;orthogonalLoop=1;jettySize=auto;html=1;entryX=1;entryY=0.5;entryDx=0;entryDy=0;" edge="1" parent="1" source="0tfDMwp1xF6EGkPO3yS6-2" target="0tfDMwp1xF6EGkPO3yS6-1">
          <mxGeometry relative="1" as="geometry" />
        </mxCell>
        <mxCell id="0tfDMwp1xF6EGkPO3yS6-2" value="ac+" style="rhombus;whiteSpace=wrap;html=1;" vertex="1" parent="1">
          <mxGeometry x="1080" y="43.25" width="40" height="40" as="geometry" />
        </mxCell>
        <mxCell id="0tfDMwp1xF6EGkPO3yS6-9" style="edgeStyle=orthogonalEdgeStyle;rounded=0;orthogonalLoop=1;jettySize=auto;html=1;entryX=1;entryY=0.5;entryDx=0;entryDy=0;" edge="1" parent="1" source="0tfDMwp1xF6EGkPO3yS6-3" target="0tfDMwp1xF6EGkPO3yS6-1">
          <mxGeometry relative="1" as="geometry" />
        </mxCell>
        <mxCell id="0tfDMwp1xF6EGkPO3yS6-3" value="gnd" style="rhombus;whiteSpace=wrap;html=1;" vertex="1" parent="1">
          <mxGeometry x="1080" y="140" width="40" height="40" as="geometry" />
        </mxCell>
        <mxCell id="0tfDMwp1xF6EGkPO3yS6-7" style="edgeStyle=orthogonalEdgeStyle;rounded=0;orthogonalLoop=1;jettySize=auto;html=1;" edge="1" parent="1" source="0tfDMwp1xF6EGkPO3yS6-4" target="0tfDMwp1xF6EGkPO3yS6-1">
          <mxGeometry relative="1" as="geometry" />
        </mxCell>
        <mxCell id="0tfDMwp1xF6EGkPO3yS6-4" value="ac-" style="rhombus;whiteSpace=wrap;html=1;" vertex="1" parent="1">
          <mxGeometry x="1080" y="90" width="40" height="40" as="geometry" />
        </mxCell>
        <mxCell id="0tfDMwp1xF6EGkPO3yS6-14" style="edgeStyle=orthogonalEdgeStyle;rounded=0;orthogonalLoop=1;jettySize=auto;html=1;exitX=0;exitY=0.5;exitDx=0;exitDy=0;" edge="1" parent="1" source="0tfDMwp1xF6EGkPO3yS6-1" target="0tfDMwp1xF6EGkPO3yS6-11">
          <mxGeometry relative="1" as="geometry" />
        </mxCell>
        <mxCell id="0tfDMwp1xF6EGkPO3yS6-75" style="edgeStyle=orthogonalEdgeStyle;rounded=0;orthogonalLoop=1;jettySize=auto;html=1;entryX=1;entryY=0.5;entryDx=0;entryDy=0;" edge="1" parent="1" source="0tfDMwp1xF6EGkPO3yS6-11" target="0tfDMwp1xF6EGkPO3yS6-42">
          <mxGeometry relative="1" as="geometry">
            <Array as="points">
              <mxPoint x="550" y="135" />
              <mxPoint x="550" y="320" />
            </Array>
          </mxGeometry>
        </mxCell>
        <mxCell id="0tfDMwp1xF6EGkPO3yS6-11" value="dc-" style="rhombus;whiteSpace=wrap;html=1;" vertex="1" parent="1">
          <mxGeometry x="810" y="114.87" width="40" height="40" as="geometry" />
        </mxCell>
        <mxCell id="0tfDMwp1xF6EGkPO3yS6-13" style="edgeStyle=orthogonalEdgeStyle;rounded=0;orthogonalLoop=1;jettySize=auto;html=1;exitX=0;exitY=0.5;exitDx=0;exitDy=0;" edge="1" parent="1" source="0tfDMwp1xF6EGkPO3yS6-1" target="0tfDMwp1xF6EGkPO3yS6-12">
          <mxGeometry relative="1" as="geometry" />
        </mxCell>
        <mxCell id="0tfDMwp1xF6EGkPO3yS6-46" style="edgeStyle=orthogonalEdgeStyle;rounded=0;orthogonalLoop=1;jettySize=auto;html=1;entryX=1;entryY=0.5;entryDx=0;entryDy=0;" edge="1" parent="1" source="0tfDMwp1xF6EGkPO3yS6-12" target="0tfDMwp1xF6EGkPO3yS6-41">
          <mxGeometry relative="1" as="geometry">
            <Array as="points">
              <mxPoint x="520" y="75" />
              <mxPoint x="520" y="260" />
            </Array>
          </mxGeometry>
        </mxCell>
        <mxCell id="0tfDMwp1xF6EGkPO3yS6-12" value="dc+" style="rhombus;whiteSpace=wrap;html=1;" vertex="1" parent="1">
          <mxGeometry x="810" y="54.870000000000005" width="40" height="40" as="geometry" />
        </mxCell>
        <mxCell id="0tfDMwp1xF6EGkPO3yS6-71" style="edgeStyle=orthogonalEdgeStyle;rounded=0;orthogonalLoop=1;jettySize=auto;html=1;entryX=0.5;entryY=1;entryDx=0;entryDy=0;" edge="1" parent="1" source="0tfDMwp1xF6EGkPO3yS6-15" target="PUIkpn1EFsI0aQIMFj-C-49">
          <mxGeometry relative="1" as="geometry" />
        </mxCell>
        <mxCell id="0tfDMwp1xF6EGkPO3yS6-15" value="+" style="rhombus;whiteSpace=wrap;html=1;" vertex="1" parent="1">
          <mxGeometry x="360" y="130" width="40" height="40" as="geometry" />
        </mxCell>
        <mxCell id="0tfDMwp1xF6EGkPO3yS6-72" style="edgeStyle=orthogonalEdgeStyle;rounded=0;orthogonalLoop=1;jettySize=auto;html=1;entryX=0.5;entryY=1;entryDx=0;entryDy=0;" edge="1" parent="1" source="0tfDMwp1xF6EGkPO3yS6-16" target="PUIkpn1EFsI0aQIMFj-C-49">
          <mxGeometry relative="1" as="geometry" />
        </mxCell>
        <mxCell id="0tfDMwp1xF6EGkPO3yS6-16" value="-" style="rhombus;whiteSpace=wrap;html=1;" vertex="1" parent="1">
          <mxGeometry x="440" y="130" width="40" height="40" as="geometry" />
        </mxCell>
        <mxCell id="0tfDMwp1xF6EGkPO3yS6-59" style="edgeStyle=orthogonalEdgeStyle;rounded=0;orthogonalLoop=1;jettySize=auto;html=1;exitX=1;exitY=0.5;exitDx=0;exitDy=0;entryX=1;entryY=0.5;entryDx=0;entryDy=0;" edge="1" parent="1" source="PUIkpn1EFsI0aQIMFj-C-49" target="PUIkpn1EFsI0aQIMFj-C-49">
          <mxGeometry relative="1" as="geometry" />
        </mxCell>
        <mxCell id="0tfDMwp1xF6EGkPO3yS6-69" style="edgeStyle=orthogonalEdgeStyle;rounded=0;orthogonalLoop=1;jettySize=auto;html=1;entryX=0.5;entryY=1;entryDx=0;entryDy=0;" edge="1" parent="1" source="PUIkpn1EFsI0aQIMFj-C-155" target="PUIkpn1EFsI0aQIMFj-C-66">
          <mxGeometry relative="1" as="geometry" />
        </mxCell>
        <mxCell id="0tfDMwp1xF6EGkPO3yS6-70" style="edgeStyle=orthogonalEdgeStyle;rounded=0;orthogonalLoop=1;jettySize=auto;html=1;entryX=0.5;entryY=1;entryDx=0;entryDy=0;" edge="1" parent="1" source="PUIkpn1EFsI0aQIMFj-C-160" target="PUIkpn1EFsI0aQIMFj-C-65">
          <mxGeometry relative="1" as="geometry" />
        </mxCell>
        <mxCell id="0tfDMwp1xF6EGkPO3yS6-73" style="edgeStyle=orthogonalEdgeStyle;rounded=0;orthogonalLoop=1;jettySize=auto;html=1;entryX=0.5;entryY=1;entryDx=0;entryDy=0;exitX=0.5;exitY=0;exitDx=0;exitDy=0;" edge="1" parent="1" source="0tfDMwp1xF6EGkPO3yS6-41" target="0tfDMwp1xF6EGkPO3yS6-15">
          <mxGeometry relative="1" as="geometry">
            <Array as="points">
              <mxPoint x="396" y="200" />
              <mxPoint x="380" y="200" />
            </Array>
          </mxGeometry>
        </mxCell>
        <mxCell id="0tfDMwp1xF6EGkPO3yS6-76" style="edgeStyle=orthogonalEdgeStyle;rounded=0;orthogonalLoop=1;jettySize=auto;html=1;entryX=0.5;entryY=1;entryDx=0;entryDy=0;exitX=0.5;exitY=0;exitDx=0;exitDy=0;" edge="1" parent="1" source="0tfDMwp1xF6EGkPO3yS6-42" target="0tfDMwp1xF6EGkPO3yS6-16">
          <mxGeometry relative="1" as="geometry">
            <Array as="points">
              <mxPoint x="396" y="290" />
              <mxPoint x="460" y="290" />
            </Array>
          </mxGeometry>
        </mxCell>
        <mxCell id="0tfDMwp1xF6EGkPO3yS6-84" style="edgeStyle=orthogonalEdgeStyle;rounded=0;orthogonalLoop=1;jettySize=auto;html=1;entryX=1;entryY=0;entryDx=0;entryDy=0;" edge="1" parent="1" source="0tfDMwp1xF6EGkPO3yS6-41" target="PUIkpn1EFsI0aQIMFj-C-22">
          <mxGeometry relative="1" as="geometry">
            <Array as="points">
              <mxPoint x="300" y="260" />
              <mxPoint x="300" y="631" />
            </Array>
          </mxGeometry>
        </mxCell>
        <mxCell id="0tfDMwp1xF6EGkPO3yS6-85" style="edgeStyle=orthogonalEdgeStyle;rounded=0;orthogonalLoop=1;jettySize=auto;html=1;entryX=1;entryY=0;entryDx=0;entryDy=0;" edge="1" parent="1" source="0tfDMwp1xF6EGkPO3yS6-41" target="PUIkpn1EFsI0aQIMFj-C-23">
          <mxGeometry relative="1" as="geometry">
            <Array as="points">
              <mxPoint x="300" y="260" />
              <mxPoint x="300" y="681" />
            </Array>
          </mxGeometry>
        </mxCell>
        <mxCell id="0tfDMwp1xF6EGkPO3yS6-86" style="edgeStyle=orthogonalEdgeStyle;rounded=0;orthogonalLoop=1;jettySize=auto;html=1;entryX=1;entryY=0;entryDx=0;entryDy=0;" edge="1" parent="1" source="0tfDMwp1xF6EGkPO3yS6-41" target="PUIkpn1EFsI0aQIMFj-C-24">
          <mxGeometry relative="1" as="geometry">
            <Array as="points">
              <mxPoint x="300" y="260" />
              <mxPoint x="300" y="736" />
            </Array>
          </mxGeometry>
        </mxCell>
        <mxCell id="0tfDMwp1xF6EGkPO3yS6-87" style="edgeStyle=orthogonalEdgeStyle;rounded=0;orthogonalLoop=1;jettySize=auto;html=1;entryX=1;entryY=0;entryDx=0;entryDy=0;" edge="1" parent="1" source="0tfDMwp1xF6EGkPO3yS6-41" target="PUIkpn1EFsI0aQIMFj-C-21">
          <mxGeometry relative="1" as="geometry">
            <Array as="points">
              <mxPoint x="300" y="260" />
              <mxPoint x="300" y="581" />
            </Array>
          </mxGeometry>
        </mxCell>
      </root>
    </mxGraphModel>
  </diagram>
</mxfile>
